<svg xmlns="http://www.w3.org/2000/svg" width="100" height="90" viewBox="0 0 500 450">
  <metadata><?xpacket begin="﻿" id="W5M0MpCehiHzreSzNTczkc9d"?>
<x:xmpmeta xmlns:x="adobe:ns:meta/" x:xmptk="Adobe XMP Core 5.6-c138 79.159824, 2016/09/14-01:09:01        ">
   <rdf:RDF xmlns:rdf="http://www.w3.org/1999/02/22-rdf-syntax-ns#">
      <rdf:Description rdf:about=""/>
   </rdf:RDF>
</metadata>
<defs>
    <style>
      .cls-1 {
        fill: #008ecc;
        fill-rule: evenodd;
      }
    </style>
  </defs>
  <path id="chorjs" class="cls-1" d="M500,351v34a65,65,0,0,1-38.855,59.511ZM0,119H500V331H0V119ZM419.972,263.026a53.29,53.29,0,0,0,14.925,2.025q14.547,0,21.825-6.525T464,240.6a20.571,20.571,0,0,0-2.55-10.8,22.429,22.429,0,0,0-6.3-6.825,35.9,35.9,0,0,0-8.25-4.275q-4.5-1.648-8.25-3.075a33.471,33.471,0,0,1-6.3-3.075,4.985,4.985,0,0,1-2.55-4.35q0-6.75,8.7-6.75a38.634,38.634,0,0,1,10.65,1.5q5.249,1.5,8.7,2.85l4.35-14.1a44.767,44.767,0,0,0-10.8-4.05,61.257,61.257,0,0,0-15.45-1.8q-12.453,0-19.05,5.85t-6.6,16.95q0,6.75,2.55,11.025a23.786,23.786,0,0,0,6.3,7.05,30.934,30.934,0,0,0,8.25,4.35q4.5,1.575,8.25,3.075a30.874,30.874,0,0,1,6.3,3.3,5.6,5.6,0,0,1,2.55,4.8q0,3.9-2.625,5.55a12.97,12.97,0,0,1-6.975,1.65,37.171,37.171,0,0,1-11.7-1.875,51.794,51.794,0,0,1-9.15-3.825l-5.4,14.55A45.919,45.919,0,0,0,419.972,263.026Zm-26.249-103.65A13.532,13.532,0,0,0,384.5,156.3q-5.7,0-8.925,3.075a9.886,9.886,0,0,0-3.225,7.425,9.416,9.416,0,0,0,3.225,7.275Q378.8,177,384.5,177a13.973,13.973,0,0,0,9.225-2.925,9.087,9.087,0,0,0,3.525-7.275A9.521,9.521,0,0,0,393.723,159.376ZM362.3,293.1a47.85,47.85,0,0,0,9.6,1.05q11.849,0,17.25-7.2t5.4-20.85v-78.15h-19.5v72.6q0,7.65-2.025,12t-8.775,4.35a5.577,5.577,0,0,1-.9-0.075,6.235,6.235,0,0,0-1.05-.075V293.1Zm-43.5-64.65h37.65V211.2H318.8v17.25Zm-52.2,34.5h19.5V214.5a13.362,13.362,0,0,1,4.725-7.125A13.746,13.746,0,0,1,299.6,204.6a25.444,25.444,0,0,1,8.4,1.65l2.55-18.3a28.4,28.4,0,0,0-8.85-1.65,17.525,17.525,0,0,0-10.2,3,20.44,20.44,0,0,0-6.9,8.55H284l-2.25-9.9H266.6v75Zm-81.973-21.3a33.649,33.649,0,0,0,6.6,12.525,29.771,29.771,0,0,0,11.025,8.025,39.177,39.177,0,0,0,15.6,2.85q16.8,0,26.025-10.275t9.225-29.325a57.018,57.018,0,0,0-2.175-16.2,34.361,34.361,0,0,0-6.525-12.525,29.177,29.177,0,0,0-10.95-8.025,39.169,39.169,0,0,0-15.6-2.85q-16.8,0-26.1,10.275t-9.3,29.325A56.892,56.892,0,0,0,184.628,241.651Zm-80.325,21.3h19.5V215.1a16,16,0,0,1,5.475-8.625,14.007,14.007,0,0,1,9.075-3.375q6.75,0,9.3,4.05t2.55,13.2v42.6h19.5V216.3a63.753,63.753,0,0,0-1.425-14.625,22.423,22.423,0,0,0-4.35-9.375,16.362,16.362,0,0,0-7.275-4.95,30.833,30.833,0,0,0-10.05-1.5q-8.1,0-13.35,2.85a27.12,27.12,0,0,0-8.85,7.65h-0.6v-38.4H104.3v105Zm-66.825-21.3A33.036,33.036,0,0,0,43.1,254.176,25.934,25.934,0,0,0,53.228,262.2a36.482,36.482,0,0,0,15.225,2.85,50.12,50.12,0,0,0,13.125-1.725A32.564,32.564,0,0,0,92.453,258.3l-4.5-14.85a29.408,29.408,0,0,1-6.15,3.075,24.324,24.324,0,0,1-8.4,1.275,17.069,17.069,0,0,1-7.875-1.725,14.741,14.741,0,0,1-5.475-4.725,21.566,21.566,0,0,1-3.15-7.05,35.168,35.168,0,0,1-1.05-8.85q0-11.7,4.2-17.025t12.3-5.325a30.077,30.077,0,0,1,7.725.9,39.439,39.439,0,0,1,6.825,2.55l4.65-15.9a45.151,45.151,0,0,0-9.075-3.45,52.853,52.853,0,0,0-13.275-1.35q-16.351,0-24.9,10.275t-8.55,29.325A70.874,70.874,0,0,0,37.478,241.651Zm180.375-39.3q8.247,0,11.7,6.375T233,225.451q0,12-3.75,17.55t-11.4,5.55a13.479,13.479,0,0,1-6.975-1.725,13.02,13.02,0,0,1-4.725-4.875,25.5,25.5,0,0,1-2.7-7.35,43.673,43.673,0,0,1-.9-9.15q0-12.3,4.05-17.7A13.27,13.27,0,0,1,217.853,202.351ZM0,65A65,65,0,0,1,65,0H435a65,65,0,0,1,65,65V99H0V65ZM3.095,404.839A64.934,64.934,0,0,1,0,385V351H25.36ZM70.874,351L33.339,441.76a65.36,65.36,0,0,1-19.29-16.424L44.791,351H70.874Zm45.482,0L75.414,450H65a65.113,65.113,0,0,1-14.924-1.726L90.3,351h26.052Zm45.508,0-40.942,99H94.844l40.942-99h26.078Zm45.514,0-40.942,99H140.353L181.3,351h26.083Zm45.482,0-40.942,99H185.866l40.942-99H252.86Zm45.509,0-40.943,99H231.348l40.942-99h26.079Zm45.513,0L302.94,450H276.857L317.8,351h26.083Zm45.482,0-40.942,99H322.37l40.942-99h26.052Zm45.509,0-40.942,99H367.852L408.8,351h26.078Zm45.513,0-40.87,98.826c-1.494.1-3,.174-4.516,0.174H413.361L454.3,351h26.083Z"/>
</svg>
